<svg version="1.1" xmlns="http://www.w3.org/2000/svg" viewBox="0 0 796 379" width="796" height="379">
  <!-- svg-source:excalidraw -->
  
  <defs>
    <style>
      @font-face {
        font-family: "Virgil";
        src: url("https://excalidraw.com/Virgil.woff2");
      }
      @font-face {
        font-family: "Cascadia";
        src: url("https://excalidraw.com/Cascadia.woff2");
      }
    </style>
  </defs>
  <g stroke-linecap="round" transform="translate(10 87) rotate(0 59.5 95.5)"><path d="M-0.05 -0.41 C34.67 0.32, 67.37 -1.28, 120.35 1.83 M-0.73 0.44 C38.93 1.76, 78.38 1.59, 119.03 0.25 M117.76 -2 C118.09 68.9, 118.97 137.98, 119.49 192.29 M118.73 0.68 C120.77 61.32, 120.72 124.47, 119.39 191.13 M119.36 190.84 C89.39 192.11, 59.07 190.95, -1.03 189.41 M118.75 190.22 C86.09 190.83, 52.88 189.85, -0.68 191.27 M0.52 189.66 C0.99 149.4, 0.04 105.42, -1.58 1.22 M-0.97 191.02 C0.17 126.12, 0.12 61.38, 0.23 0.98" stroke="#000000" stroke-width="1" fill="none"></path></g><g stroke-linecap="round" transform="translate(24 113) rotate(0 44.5 68.5)"><path d="M-1.58 1.22 C31.73 -0.69, 63.39 -1.72, 89.04 -1.38 M0.23 0.98 C29.59 0.23, 56.47 -0.33, 89.63 -0.66 M89.74 -0.91 C89.87 31.31, 88.48 59.8, 88.28 137.76 M88.87 0.67 C89.2 36.59, 89.59 71.33, 89.6 136.79 M88.58 135.2 C69.71 136.89, 51.38 135.19, -0.01 138.12 M88.16 136.54 C65.35 136.83, 41.85 136.78, -0.78 137.82 M1.77 136.17 C-1.49 101.01, 1.98 63.47, 0.1 1.54 M0.92 137.33 C2.34 84.09, 2.06 33.32, 0.41 0.16" stroke="#000000" stroke-width="1" fill="none"></path></g><g stroke-linecap="round" transform="translate(57 258) rotate(0 11 6.5)"><path d="M16.1 1.56 C18.27 2.07, 20.47 3.07, 21.34 4.28 C22.21 5.5, 21.98 7.7, 21.32 8.83 C20.66 9.96, 19.36 10.28, 17.39 11.06 C15.42 11.84, 11.91 13.52, 9.5 13.5 C7.08 13.48, 4.61 12.1, 2.91 10.96 C1.2 9.81, -0.71 8.03, -0.73 6.63 C-0.75 5.23, 1.3 3.56, 2.77 2.55 C4.24 1.53, 5.47 0.82, 8.09 0.54 C10.71 0.26, 16.53 0.53, 18.5 0.85 C20.47 1.18, 20.22 2.33, 19.91 2.48 M8.84 1.01 C11.17 0.51, 14.7 1.19, 16.51 1.48 C18.32 1.77, 18.94 1.42, 19.71 2.75 C20.48 4.07, 21.33 8.02, 21.14 9.45 C20.95 10.87, 20.3 10.61, 18.56 11.27 C16.82 11.94, 13.19 13.41, 10.71 13.43 C8.22 13.46, 5.44 12.7, 3.64 11.44 C1.83 10.17, 0.29 7.27, -0.11 5.83 C-0.5 4.39, -0.05 3.64, 1.28 2.79 C2.62 1.93, 6.56 1.33, 7.92 0.72 C9.29 0.1, 9.48 -1.06, 9.48 -0.92" stroke="#000000" stroke-width="1" fill="none"></path></g><g stroke-linecap="round"><g transform="translate(150 160.6606006521571) rotate(0 213.03158715404578 -2.114386092022613)"><path d="M-0.94 -0.59 C70.31 -1.54, 355.84 -5.17, 427 -5.94 M0.77 1.71 C71.98 0.95, 355.83 -3.06, 426.58 -4.58" stroke="#000000" stroke-width="1" fill="none"></path></g><g transform="translate(150 160.6606006521571) rotate(0 213.03158715404578 -2.114386092022613)"><path d="M397.58 7.83 C405.39 3.61, 413.87 2.53, 425.67 -3.12 M398.02 5.95 C408.21 3.36, 416.64 0.11, 427.17 -5.39" stroke="#000000" stroke-width="1" fill="none"></path></g><g transform="translate(150 160.6606006521571) rotate(0 213.03158715404578 -2.114386092022613)"><path d="M397.23 -12.68 C405.09 -11.52, 413.67 -7.23, 425.67 -3.12 M397.67 -14.57 C407.9 -10.74, 416.44 -7.57, 427.17 -5.39" stroke="#000000" stroke-width="1" fill="none"></path></g></g><g stroke-linecap="round"><g transform="translate(586.6606701834547 205.3222650342043) rotate(0 -223.4464859866747 2.1030272189057655)"><path d="M-1.19 0.73 C-75.71 1.28, -372.34 2.31, -446.44 2.88 M0.38 0.06 C-74.33 0.82, -372.87 3.79, -447.27 4.14" stroke="#000000" stroke-width="1" fill="none"></path></g><g transform="translate(586.6606701834547 205.3222650342043) rotate(0 -223.4464859866747 2.1030272189057655)"><path d="M-417.95 -5.97 C-430.01 -1.43, -437.83 1.45, -446.99 4.98 M-420.08 -7.03 C-426.53 -2.98, -432.58 -1.28, -448.17 3.62" stroke="#000000" stroke-width="1" fill="none"></path></g><g transform="translate(586.6606701834547 205.3222650342043) rotate(0 -223.4464859866747 2.1030272189057655)"><path d="M-417.79 14.55 C-429.83 11.84, -437.71 7.47, -446.99 4.98 M-419.92 13.49 C-426.43 12.68, -432.53 9.52, -448.17 3.62" stroke="#000000" stroke-width="1" fill="none"></path></g></g><g stroke-linecap="round" transform="translate(589 10) rotate(0 98.5 179.5)"><path d="M-1.72 0.53 C50.23 3.01, 103.61 1.29, 196.35 -0.52 M0.85 -0.73 C78.82 2, 158.31 0.8, 197.09 -0.81 M196.76 0.26 C195.36 112.5, 196.58 226.51, 197.04 358.56 M196.88 0.24 C198.7 74.36, 198.51 149.73, 196.92 359.4 M198.95 358.92 C125.62 358.25, 52.38 358.45, -0.33 359.79 M196.83 358.13 C141.16 359.23, 85.08 359.16, 0.55 358.7 M0.31 357.96 C-2.56 272.41, -1.58 185.13, 1.27 1.09 M0.63 358.39 C-0.49 224.72, -0.61 90.98, 0.33 -0.13" stroke="#000000" stroke-width="1" fill="none"></path></g><g transform="translate(630 142) rotate(0 56.5 22.5)"><text x="0" y="32" font-family="Virgil, Segoe UI Emoji" font-size="36px" fill="#000000" text-anchor="start" style="white-space: pre;" direction="ltr">Server</text></g><g transform="translate(154.0000000000001 106) rotate(0 212.5 15)"><text x="0" y="21" font-family="Virgil, Segoe UI Emoji" font-size="23.999999999999996px" fill="#000000" text-anchor="start" style="white-space: pre;" direction="ltr">GET  https://farouk-blog.vercel.app</text></g><g transform="translate(182 233) rotate(0 164.5 28.5)"><text x="0" y="15" font-family="Cascadia, Segoe UI Emoji" font-size="16px" fill="#000000" text-anchor="start" style="white-space: pre;" direction="ltr">&lt;body&gt;</text><text x="0" y="34" font-family="Cascadia, Segoe UI Emoji" font-size="16px" fill="#000000" text-anchor="start" style="white-space: pre;" direction="ltr">    &lt;script src="/app.js"&gt;&lt;/script&gt;</text><text x="0" y="53" font-family="Cascadia, Segoe UI Emoji" font-size="16px" fill="#000000" text-anchor="start" style="white-space: pre;" direction="ltr">&lt;/body&gt;</text></g></svg>